# xmcd
#
# Track frame offsets: 
#        150
#        25148
#        49201
#        74729
#        93021
#        111836
#        143178
#        167007
#        186468
#        209825
#        230250
#        250551
#        264435
#        281961
#
# Disc length: 4053 seconds
#
# Revision: 1
# Processed by: cddbd v1.5.2PL0 Copyright (c) Steve Scherf et al.
# Submitted via: ExactAudioCopyFreeDBPlugin 1.0
#
DISCID=d30fd30e
DTITLE=群星【英】 - TEST-CD试音极品13CDA
DYEAR=2012
DGENRE=stereo
TTITLE0=最后一夜
TTITLE1=Brother Louie
TTITLE2=暴风一族
TTITLE3=像雾像雨又像风
TTITLE4=Ma Baker
TTITLE5=Boom Boom
TTITLE6=Into The Night
TTITLE7=Say You'll Never
TTITLE8=Shy Like An Angel
TTITLE9=亚热带少年
TTITLE10=Rasputin
TTITLE11=Cheri ChERI Lady
TTITLE12=You're My Heart You're My Soul
TTITLE13=Heartbreak Hotel
EXTD=
EXTT0=
EXTT1=
EXTT2=
EXTT3=
EXTT4=
EXTT5=
EXTT6=
EXTT7=
EXTT8=
EXTT9=
EXTT10=
EXTT11=
EXTT12=
EXTT13=
PLAYORDER=
